<svg xmlns="http://www.w3.org/2000/svg" width="80" height="50" viewBox="0 0 80 50">
  <path styte="fill: #111;fill-rule: evenodd;" class="cls-1" d="M319.812,762H259.644a5.2,5.2,0,0,0-5.188,5.167V770.5h-4.268A5.2,5.2,0,0,0,245,775.667v31.166A5.2,5.2,0,0,0,250.188,812h60.168a5.2,5.2,0,0,0,5.188-5.167V803.5h4.268A5.2,5.2,0,0,0,325,798.333V767.167A5.1,5.1,0,0,0,319.812,762Zm-72.134,13.667a2.512,2.512,0,0,1,2.51-2.5h60.084a2.511,2.511,0,0,1,2.51,2.5v3.5h-65.1v-3.5Zm65.188,26.583v4.667a2.512,2.512,0,0,1-2.51,2.5H250.188a2.512,2.512,0,0,1-2.51-2.5V789.583h65.188V802.25Zm0-15.333H247.678v-5.084h65.188v5.084Zm9.456,11.5a2.512,2.512,0,0,1-2.51,2.5h-4.268v-25.25a5.2,5.2,0,0,0-5.188-5.167H257.134v-3.333a2.512,2.512,0,0,1,2.51-2.5h60.168a2.512,2.512,0,0,1,2.51,2.5v31.25Z" transform="translate(-245 -762)"/>
  <path style="fill: #0e3ea2;fill-rule: evenodd;" class="cls-2" d="M292.113,797.667H289.77a4.277,4.277,0,0,0-4.268,4.25v1a4.224,4.224,0,0,0,4.268,4.25h2.343a4.277,4.277,0,0,0,4.268-4.25v-1A4.277,4.277,0,0,0,292.113,797.667Zm1.59,5.25a1.642,1.642,0,0,1-1.59,1.583H289.77a1.642,1.642,0,0,1-1.59-1.583v-1a1.643,1.643,0,0,1,1.59-1.584h2.343a1.643,1.643,0,0,1,1.59,1.584v1Zm10.8-5.25h-2.343a4.277,4.277,0,0,0-4.268,4.25v1a4.277,4.277,0,0,0,4.268,4.25H304.5a4.277,4.277,0,0,0,4.268-4.25v-1A4.277,4.277,0,0,0,304.5,797.667Zm1.59,5.25a1.642,1.642,0,0,1-1.59,1.583h-2.343a1.642,1.642,0,0,1-1.59-1.583v-1a1.643,1.643,0,0,1,1.59-1.584H304.5a1.643,1.643,0,0,1,1.59,1.584v1Z" transform="translate(-245 -762)"/>
</svg>
