<svg xmlns="http://www.w3.org/2000/svg" width="61" height="52" viewBox="0 0 61 52">
  <path style="fill: #111;fill-rule: evenodd;" d="M902.908,760H844.092A1.083,1.083,0,0,0,843,761.1v45.319a1.083,1.083,0,0,0,1.092,1.1h7.3V810.9a1.082,1.082,0,0,0,1.091,1.1h9.007a1.083,1.083,0,0,0,1.092-1.1v-3.375h21.834V810.9a1.083,1.083,0,0,0,1.092,1.1h9.006a1.083,1.083,0,0,0,1.092-1.1v-3.375h7.3a1.083,1.083,0,0,0,1.092-1.1V761.1A1.083,1.083,0,0,0,902.908,760ZM860.4,809.727h-6.823v-2.273H860.4v2.273Zm33.025,0H886.6v-2.273h6.824v2.273Zm1.091-4.408H845.184V762.2h56.564v43.115h-7.233Zm3.207-40.222H852.28a1.083,1.083,0,0,0-1.092,1.1v3.65h-1.706a1.083,1.083,0,0,0-1.092,1.1v8.058a1.083,1.083,0,0,0,1.092,1.1h1.706v7.232h-1.706a1.083,1.083,0,0,0-1.092,1.1V796.5a1.083,1.083,0,0,0,1.092,1.1h1.706v3.651a1.083,1.083,0,0,0,1.092,1.1h45.442a1.083,1.083,0,0,0,1.092-1.1V766.2A1.083,1.083,0,0,0,897.722,765.1Zm-47.148,12.81v-5.854h3.412v5.854h-3.412Zm0,17.494v-5.854h3.412V795.4h-3.412Zm46.057,4.753h-43.26v-2.549h1.706a1.083,1.083,0,0,0,1.092-1.1v-8.058a1.083,1.083,0,0,0-1.092-1.1h-1.706v-7.232h1.706a1.083,1.083,0,0,0,1.092-1.1v-8.058a1.083,1.083,0,0,0-1.092-1.1h-1.706V767.3h43.26v32.853h0Z" transform="translate(-843 -760)"/>
  <path style="fill: #0e3ea2;fill-rule: evenodd;" d="M884.9,775.7a7.959,7.959,0,0,0-7.915,7.99,8.047,8.047,0,0,0,7.915,7.989A7.99,7.99,0,0,0,884.9,775.7Zm0,13.844a5.786,5.786,0,1,1,5.731-5.785A5.793,5.793,0,0,1,884.9,789.547Zm0-9.574a3.687,3.687,0,0,0-3.685,3.72,3.776,3.776,0,0,0,3.685,3.719A3.72,3.72,0,0,0,884.9,779.973Zm0,5.3a1.521,1.521,0,0,1-1.5-1.515,1.569,1.569,0,0,1,1.5-1.516A1.516,1.516,0,0,1,884.9,785.277Z" transform="translate(-843 -760)"/>
</svg>
