<svg xmlns="http://www.w3.org/2000/svg" width="24" height="30" viewBox="0 0 24 30">
  <metadata><?xpacket begin="﻿" id="W5M0MpCehiHzreSzNTczkc9d"?>
<x:xmpmeta xmlns:x="adobe:ns:meta/" x:xmptk="Adobe XMP Core 5.6-c138 79.159824, 2016/09/14-01:09:01        ">
   <rdf:RDF xmlns:rdf="http://www.w3.org/1999/02/22-rdf-syntax-ns#">
      <rdf:Description rdf:about=""/>
   </rdf:RDF>
</x:xmpmeta>
                                                                                                    
                                                                                                    
                                                                                                    
                                                                                                    
                                                                                                    
                                                                                                    
                                                                                                    
                                                                                                    
                                                                                                    
                                                                                                    
                                                                                                    
                                                                                                    
                                                                                                    
                                                                                                    
                                                                                                    
                                                                                                    
                                                                                                    
                                                                                                    
                                                                                                    
                                                                                                    
                           
<?xpacket end="w"?></metadata>
<defs>
    <style>
      .cls-1 {
        fill: #0e3ea2;
        fill-rule: evenodd;
      }
    </style>
  </defs>
  <path id="Forma_1" data-name="Forma 1" class="cls-1" d="M18.383,11H5.617a0.5,0.5,0,1,0,0,1H18.383A0.5,0.5,0,1,0,18.383,11ZM5.617,8h5.106a0.5,0.5,0,1,0,0-1H5.617A0.5,0.5,0,1,0,5.617,8Zm12.766,7H5.617a0.5,0.5,0,1,0,0,1H18.383A0.5,0.5,0,1,0,18.383,15Zm0,4H5.617a0.5,0.5,0,1,0,0,1H18.383A0.5,0.5,0,1,0,18.383,19Zm0,4H5.617a0.5,0.5,0,1,0,0,1H18.383A0.5,0.5,0,1,0,18.383,23ZM16.552,0H0V30H24V7.293Zm0.3,1.707L22.257,7H16.851V1.707ZM1.021,29V1H15.83V8h7.149V29H1.021Z"/>
</svg>
