<svg xmlns="http://www.w3.org/2000/svg" width="52" height="49" viewBox="0 0 52 49">
  <path style="fill: #111;fill-rule: evenodd;" class="cls-1" d="M1193.72,792.507c0,4.665-2.72,5-3.24,5h-39.94l8.59-8.814-2.29-2.366-11.37,11.663a1.7,1.7,0,0,0,0,2.349L1156.84,812l2.29-2.349-8.59-8.814h39.94c2.24,0,6.49-1.666,6.49-8.33v-5h-3.25v5Z" transform="translate(-1145 -763)"/>
  <path style="fill: #0e3ea2;fill-rule: evenodd;" d="M1148.25,782.51c0-4.665,2.73-5,3.25-5h39.93l-8.59,8.813,2.29,2.35,11.37-11.663a1.7,1.7,0,0,0,0-2.349L1185.13,763l-2.3,2.366,8.6,8.813H1151.5c-2.24,0-6.5,1.667-6.5,8.331v5h3.25v-5Z" transform="translate(-1145 -763)"/>
</svg>
