<svg xmlns="http://www.w3.org/2000/svg" width="12" height="18" viewBox="0 0 12 18">
  <metadata><?xpacket begin="﻿" id="W5M0MpCehiHzreSzNTczkc9d"?>
<x:xmpmeta xmlns:x="adobe:ns:meta/" x:xmptk="Adobe XMP Core 5.6-c138 79.159824, 2016/09/14-01:09:01        ">
   <rdf:RDF xmlns:rdf="http://www.w3.org/1999/02/22-rdf-syntax-ns#">
      <rdf:Description rdf:about=""/>
   </rdf:RDF>
</x:xmpmeta>
                                                                                                    
                                                                                                    
                                                                                                    
                                                                                                    
                                                                                                    
                                                                                                    
                                                                                                    
                                                                                                    
                                                                                                    
                                                                                                    
                                                                                                    
                                                                                                    
                                                                                                    
                                                                                                    
                                                                                                    
                                                                                                    
                                                                                                    
                                                                                                    
                                                                                                    
                                                                                                    
                           
<?xpacket end="w"?></metadata>
<defs>
    <style>
      .cls-1 {
        fill: #0e3ea2;
        fill-rule: evenodd;
      }
    </style>
  </defs>
  <path id="Forma_1" data-name="Forma 1" class="cls-1" d="M753.014,79h-0.028A5.825,5.825,0,0,0,747,84.635c0,2.037.985,4.725,2.928,7.99a44.356,44.356,0,0,0,2.915,4.293,0.221,0.221,0,0,0,.173.082h0.006a0.218,0.218,0,0,0,.173-0.091c0.014-.02,1.465-2.083,2.895-4.605,1.931-3.4,2.91-5.985,2.91-7.669A5.826,5.826,0,0,0,753.014,79Zm2.763,5.773A2.782,2.782,0,1,1,753,82.158,2.7,2.7,0,0,1,755.777,84.773Z" transform="translate(-747 -79)"/>
</svg>
