<svg xmlns="http://www.w3.org/2000/svg" width="18" height="18" viewBox="0 0 18 18">
  <metadata><?xpacket begin="﻿" id="W5M0MpCehiHzreSzNTczkc9d"?>
<x:xmpmeta xmlns:x="adobe:ns:meta/" x:xmptk="Adobe XMP Core 5.6-c138 79.159824, 2016/09/14-01:09:01        ">
   <rdf:RDF xmlns:rdf="http://www.w3.org/1999/02/22-rdf-syntax-ns#">
      <rdf:Description rdf:about=""/>
   </rdf:RDF>
</x:xmpmeta>
                                                                                                    
                                                                                                    
                                                                                                    
                                                                                                    
                                                                                                    
                                                                                                    
                                                                                                    
                                                                                                    
                                                                                                    
                                                                                                    
                                                                                                    
                                                                                                    
                                                                                                    
                                                                                                    
                                                                                                    
                                                                                                    
                                                                                                    
                                                                                                    
                                                                                                    
                                                                                                    
                           
<?xpacket end="w"?></metadata>
<defs>
    <style>
      .cls-1 {
        fill: #0e3ea2;
        fill-rule: evenodd;
      }
    </style>
  </defs>
  <path id="Forma_1" data-name="Forma 1" class="cls-1" d="M1012.99,93.205a0.857,0.857,0,0,1-.27.763l-2.53,2.517a1.329,1.329,0,0,1-.45.324,1.779,1.779,0,0,1-.54.172l-0.12.01q-0.09.009-.24,0.01a8.789,8.789,0,0,1-1.17-.124,8.932,8.932,0,0,1-1.99-.61,16.621,16.621,0,0,1-2.65-1.459,19.456,19.456,0,0,1-3.168-2.669,20.881,20.881,0,0,1-2.21-2.517,17.919,17.919,0,0,1-1.411-2.222,12.053,12.053,0,0,1-.8-1.849,9.863,9.863,0,0,1-.362-1.43A4.739,4.739,0,0,1,995,83.176c0.013-.229.019-0.356,0.019-0.381a1.868,1.868,0,0,1,.171-0.543,1.429,1.429,0,0,1,.324-0.448l2.535-2.536a0.84,0.84,0,0,1,.61-0.267,0.71,0.71,0,0,1,.438.143,1.327,1.327,0,0,1,.324.353l2.036,3.871a0.906,0.906,0,0,1,.1.667,1.157,1.157,0,0,1-.33.61l-0.93.934a0.278,0.278,0,0,0-.07.124,0.451,0.451,0,0,0-.03.143,3.759,3.759,0,0,0,.35.915,8.852,8.852,0,0,0,.7,1.116,12.254,12.254,0,0,0,1.36,1.516,12.857,12.857,0,0,0,1.52,1.363,8.4,8.4,0,0,0,1.12.715,2.793,2.793,0,0,0,.68.276l0.24,0.048a0.418,0.418,0,0,0,.12-0.029,0.364,0.364,0,0,0,.13-0.067l1.08-1.106a1.177,1.177,0,0,1,.8-0.305,1.013,1.013,0,0,1,.52.115h0.02l3.67,2.174A0.952,0.952,0,0,1,1012.99,93.205Z" transform="translate(-995 -79)"/>
</svg>
