<svg xmlns="http://www.w3.org/2000/svg" width="14" height="19" viewBox="0 0 14 19">
  <path style="fill-rule: evenodd; fill: #0e3ea2;" d="M11.613,1.989H9.753V1.462A0.387,0.387,0,0,0,9.372,1.07H8.356a1.4,1.4,0,0,0-1.74-1,1.43,1.43,0,0,0-.971,1H4.628a0.387,0.387,0,0,0-.382.393V2.008H2.387A2.251,2.251,0,0,0,0,4.463V16.546A2.248,2.248,0,0,0,2.387,19h9.226A2.254,2.254,0,0,0,14,16.546V4.443A2.248,2.248,0,0,0,11.613,1.989Zm-6.6-.134H5.973a0.387,0.387,0,0,0,.382-0.393A0.658,0.658,0,0,1,6.948.75a0.651,0.651,0,0,1,.693.611,0.687,0.687,0,0,1,0,.1,0.387,0.387,0,0,0,.382.393H8.986V3.2H5.01V1.855Zm8.226,14.691a1.5,1.5,0,0,1-1.623,1.669H2.387A1.488,1.488,0,0,1,.764,16.546V4.443A1.488,1.488,0,0,1,2.387,2.774H4.25V3.559a0.387,0.387,0,0,0,.382.393H9.372a0.387,0.387,0,0,0,.382-0.393V2.774l1.86,0.02a1.488,1.488,0,0,1,1.623,1.669V16.546ZM11.415,5.782H2.585a0.393,0.393,0,0,0,0,.785h8.829A0.393,0.393,0,0,0,11.415,5.782Zm0,1.932H2.585a0.393,0.393,0,0,0,0,.785h8.829A0.393,0.393,0,0,0,11.415,7.714Zm0,1.948H2.585a0.393,0.393,0,0,0,0,.785h8.829A0.393,0.393,0,0,0,11.415,9.662Zm0,1.944H2.585a0.393,0.393,0,0,0,0,.785h8.829A0.393,0.393,0,0,0,11.415,11.606Zm0,1.948H2.585a0.393,0.393,0,0,0,0,.785h8.829A0.393,0.393,0,0,0,11.415,13.553Z"/>
</svg>
