<svg xmlns="http://www.w3.org/2000/svg" width="25" height="19" viewBox="0 0 25 19">
  <path style="fill: #0e3ea2;fill-rule: evenodd;" d="M1185.58,27.036h-11.86a0.5,0.5,0,0,1-.49-0.5V17.012h20.92v1.252a0.617,0.617,0,0,0,.61.626,0.625,0.625,0,0,0,.62-0.626V13.752A1.745,1.745,0,0,0,1193.66,12h-19.94a1.738,1.738,0,0,0-1.72,1.752V26.536a1.738,1.738,0,0,0,1.72,1.752h11.87A0.626,0.626,0,0,0,1185.58,27.036Zm-11.86-13.785h19.94a0.5,0.5,0,0,1,.49.5V15.76h-20.93V13.752A0.5,0.5,0,0,1,1173.72,13.252Zm10.58,8.407a0.623,0.623,0,0,0-.61-0.626h-7.39a0.626,0.626,0,0,0,0,1.252h7.39A0.617,0.617,0,0,0,1184.3,21.659Zm-8,1.617a0.626,0.626,0,0,0,0,1.252h2.96a0.626,0.626,0,0,0,0-1.252h-2.96Zm-0.07-3.26h7.38a0.626,0.626,0,0,0,0-1.252h-7.38A0.626,0.626,0,0,0,1176.23,20.016Zm20.16,4.308h-0.9v-1.46a3.226,3.226,0,1,0-6.45,0v1.46h-0.9a0.625,0.625,0,0,0-.62.626v5.424a0.625,0.625,0,0,0,.62.626h8.25a0.624,0.624,0,0,0,.61-0.626V24.95A0.614,0.614,0,0,0,1196.39,24.324Zm-6.12-1.466a2,2,0,1,1,3.99,0v1.46h-3.99v-1.46Zm5.51,6.884h-7.03V25.571h7.02v4.172h0.01Z" transform="translate(-1172 -12)"/>
</svg>
