<svg xmlns="http://www.w3.org/2000/svg" width="52" height="52" viewBox="0 0 52 52">
  <path style="fill: #111;fill-rule: evenodd;" d="M595.9,782.456H594.57V773.5a3.7,3.7,0,0,0-3.651-3.757h-1v-5.985A3.6,3.6,0,0,0,586.494,760h-0.223l-37.843,9.731c-0.011,0-.032.011-0.043,0.011A3.733,3.733,0,0,0,545,773.5v34.744A3.7,3.7,0,0,0,548.651,812h42.268a3.724,3.724,0,0,0,3.757-3.757v-9.19h1.22a1.042,1.042,0,0,0,1.1-1.1V783.57A1.111,1.111,0,0,0,595.9,782.456Zm-9.19-20.355a1.632,1.632,0,0,1,1.1,1.656v5.974H557.278Zm5.762,46.142a1.61,1.61,0,0,1-1.549,1.656H548.651a1.611,1.611,0,0,1-1.55-1.656V773.5a1.611,1.611,0,0,1,1.55-1.656H590.8a1.611,1.611,0,0,1,1.55,1.656v8.957H581.4a8.3,8.3,0,1,0,0,16.6h11.068v9.19Zm2.314-11.291H581.4a6.081,6.081,0,0,1,0-12.162h13.382v12.162Zm-14.6-5.975a1.1,1.1,0,0,0,1.1,1.1h1a1.1,1.1,0,0,0,0-2.208h-0.987A1.05,1.05,0,0,0,580.18,790.977Z" transform="translate(-545 -760)"/>
  <path style="fill: #0e3ea2;fill-rule: evenodd;" d="M580.18,790.977a1.1,1.1,0,0,0,1.1,1.1h1a1.1,1.1,0,0,0,0-2.208h-0.987A1.05,1.05,0,0,0,580.18,790.977Z" transform="translate(-545 -760)"/>
</svg>
