<svg xmlns="http://www.w3.org/2000/svg" width="18" height="18" viewBox="0 0 18 18">
  <metadata><?xpacket begin="﻿" id="W5M0MpCehiHzreSzNTczkc9d"?>
<x:xmpmeta xmlns:x="adobe:ns:meta/" x:xmptk="Adobe XMP Core 5.6-c138 79.159824, 2016/09/14-01:09:01        ">
   <rdf:RDF xmlns:rdf="http://www.w3.org/1999/02/22-rdf-syntax-ns#">
      <rdf:Description rdf:about=""/>
   </rdf:RDF>
</x:xmpmeta>
                                                                                                    
                                                                                                    
                                                                                                    
                                                                                                    
                                                                                                    
                                                                                                    
                                                                                                    
                                                                                                    
                                                                                                    
                                                                                                    
                                                                                                    
                                                                                                    
                                                                                                    
                                                                                                    
                                                                                                    
                                                                                                    
                                                                                                    
                                                                                                    
                                                                                                    
                                                                                                    
                           
<?xpacket end="w"?></metadata>
<defs>
    <style>
      .cls-1 {
        fill: #0e3ea3;
        fill-rule: evenodd;
      }
    </style>
  </defs>
  <path id="Forma_1" data-name="Forma 1" class="cls-1" d="M1235,87.768a8.853,8.853,0,0,1-13.11,7.677L1217,97l1.59-4.7a8.767,8.767,0,0,1,7.57-13.3A8.806,8.806,0,0,1,1235,87.768Zm-8.84-7.372a7.414,7.414,0,0,0-7.43,7.372,7.294,7.294,0,0,0,1.42,4.322l-0.93,2.738,2.86-.907A7.39,7.39,0,1,0,1226.16,80.4Zm4.47,9.391a1.151,1.151,0,0,0-.42-0.251c-0.22-.107-1.28-0.628-1.48-0.7a0.343,0.343,0,0,0-.49.107c-0.14.215-.56,0.7-0.68,0.842a0.335,0.335,0,0,1-.47.054,5.79,5.79,0,0,1-1.74-1.067,6.467,6.467,0,0,1-1.21-1.488,0.308,0.308,0,0,1,.1-0.438c0.09-.1.21-0.251,0.32-0.376a1.365,1.365,0,0,0,.22-0.358,0.411,0.411,0,0,0-.02-0.377c-0.05-.107-0.49-1.165-0.67-1.6s-0.36-.358-0.49-0.358-0.27-.018-0.41-0.018a0.8,0.8,0,0,0-.58.269,2.4,2.4,0,0,0-.76,1.793,4.14,4.14,0,0,0,.89,2.223,8.881,8.881,0,0,0,3.7,3.245c2.2,0.86,2.2.573,2.6,0.537a2.2,2.2,0,0,0,1.46-1.021A1.846,1.846,0,0,0,1230.63,89.787Z" transform="translate(-1217 -79)"/>
</svg>
