<svg xmlns="http://www.w3.org/2000/svg" width="179" height="35" viewBox="0 0 179 35">
		<path style="fill:#0e3ea3;fill-rule:evenodd;" d="M14.28,10.39H11.2v6.52h3.08a3.35,3.35,0,0,0,3.44-3.26A3.35,3.35,0,0,0,14.28,10.39Z"/>
		<path style="fill:#7d7d7d;fill-rule:evenodd;" d="M21.55,17.64H18.47v6.52h3.08a3.26,3.26,0,1,0,0-6.52Z"/>
		<path style="fill:#7d7d7d;fill-rule:evenodd;" d="M21.55,10.39H18.47v6.52h3.08A3.35,3.35,0,0,0,25,13.65,3.35,3.35,0,0,0,21.55,10.39Z"/>
		<path style="fill:#0e3ea3;fill-rule:evenodd;" d="M14.28,17.64H11.2v6.52h3.08a3.26,3.26,0,1,0,0-6.52Z"/>
		<path style="fill:#0e3ea3;" d="M17.5,5.2a12.3,12.3,0,1,0,12.3,12.3A12.3,12.3,0,0,0,17.5,5.2Zm0-5.2A17.5,17.5,0,1,1,0,17.5,17.5,17.5,0,0,1,17.5,0Z"/>
		<path style="fill:#7d7d7d;" d="M134.11,26.75,141.05,8.4h1.42l7,18.36h-2.22l-1.81-4.92h-7.36l-1.81,4.92Zm4.63-6.63h6l-3-8.56Zm11.68,6.64V8.7h2v8.12h9.22V8.7h2V26.75h-2V18.54h-9.22v8.21Zm-27,0V8.7h9.41l0,1.7h-7.43v5.76h1.64a16.86,16.86,0,0,1,2.66.18,7,7,0,0,1,2,.59,4.26,4.26,0,0,1,1.93,1.78,5.42,5.42,0,0,1,.62,2.66,4.92,4.92,0,0,1-1.57,3.91q-1.6,1.45-5.23,1.48Zm2-1.7h2.11a5.7,5.7,0,0,0,3.48-.88,3.22,3.22,0,0,0,1.18-2.73,4,4,0,0,0-.41-1.87,2.76,2.76,0,0,0-1.23-1.2,4.44,4.44,0,0,0-1.43-.41,14.47,14.47,0,0,0-2-.11h-1.73ZM166,26.76V8.71h2v8.16h2.51a2.57,2.57,0,0,0,2.15-1.09,8.75,8.75,0,0,0,1.18-2.52,29.4,29.4,0,0,1,1-2.81,3.64,3.64,0,0,1,1.05-1.36,2.77,2.77,0,0,1,1.71-.52h1v1.87h-.9a1.27,1.27,0,0,0-.67.24,1.93,1.93,0,0,0-.54.68,16.46,16.46,0,0,0-.79,2.12,14.79,14.79,0,0,1-.94,2.36,4.18,4.18,0,0,1-1.58,1.74,3.36,3.36,0,0,1,1.26,1,13,13,0,0,1,1.18,1.88l3.4,6.27h-2.3l-3.12-5.92a7.78,7.78,0,0,0-1.21-1.74,1.45,1.45,0,0,0-1-.53H168v8.19Z"/>
		<path style="fill:#0e3ea3;" d="M115.17,8.69h4V26.77h-4.05V15.11l-7.59,11.66h-4V8.69h4.05V19.81l7.52-11.12Zm-3.94-1.13a5,5,0,0,1-3.67-1.33,4.44,4.44,0,0,1-1.18-3.36h3a2.21,2.21,0,0,0,.42,1.41,2.06,2.06,0,0,0,2.89,0,2.21,2.21,0,0,0,.42-1.41h3a4.44,4.44,0,0,1-1.18,3.36A5,5,0,0,1,111.23,7.57ZM41,26.75V8.7H52.24l0,3.37H45.16v3.29h1.12a15.59,15.59,0,0,1,2.76.22,7.8,7.8,0,0,1,2.37.79,4.61,4.61,0,0,1,1.85,1.74A5.62,5.62,0,0,1,54,21a5.15,5.15,0,0,1-1.68,4.1q-1.74,1.6-6,1.65Zm4.19-3.39H46.4a4.55,4.55,0,0,0,2.6-.57,2,2,0,0,0,.77-1.74,2.43,2.43,0,0,0-.23-1.1,1.7,1.7,0,0,0-.62-.69,3.31,3.31,0,0,0-1.18-.41,8.49,8.49,0,0,0-1.45-.11H45.16Zm15-4.15h3.74L62,14Zm5,3.41H58.88L57.37,26.8h-4.3L60.16,8.68h3.45L71.09,26.8H66.6Zm27-3.41h3.75L94,14Zm5,3.41H90.85L89.34,26.8H85l-2.61,0A16.05,16.05,0,0,0,80,22.53a8.75,8.75,0,0,0-4.31-3.07v7.31H71.53V8.63h4.19v6.81c1.15-.33,4.3-1.67,6.51-6.81h4.13a22,22,0,0,1-1.27,3.09,14.21,14.21,0,0,1-5,5.73,15.69,15.69,0,0,1,3.23,2.91,17.44,17.44,0,0,1,2.51,4.44L92.13,8.68h3.45l7.47,18.12H98.57Z"/>
</svg>